<svg version="1.1" xmlns="http://www.w3.org/2000/svg" viewBox="0 0 500 500" width="500" height="500">
  <desc>SD Chess Robot Character based on image_25.png</desc>
  <g stroke="#000000" stroke-width="8" stroke-linecap="round" stroke-linejoin="round">

    <g fill="#FFFFFF">
        <circle cx="150" cy="140" r="25" />
        <path d="M130 160 L170 160 L160 200 L140 200 Z" stroke-width="0"/> <circle cx="350" cy="140" r="25" />
        <path d="M330 160 L370 160 L360 200 L340 200 Z" stroke-width="0"/> </g>

    <g fill="#6A1B9A">
      <path d="M80 180 L120 180 L130 250 L70 250 Z" /> <path d="M70 250 C 50 280, 50 340, 80 370 L 140 370 L 150 280 L 80 250" /> <path d="M80 180 L80 160 L95 160 L95 170 L105 170 L105 160 L120 160 L120 180 Z" /> <path d="M380 180 L420 180 L430 250 L370 250 Z" /> <path d="M430 250 C 450 280, 450 340, 420 370 L 360 370 L 350 280 L 420 250" /> <path d="M380 180 L380 160 L395 160 L395 170 L405 170 L405 160 L420 160 L420 180 Z" /> </g>

    <g fill="#E91E63">
      <path d="M140 400 L360 400 L380 480 L120 480 Z" />
      <line x1="200" y1="400" x2="190" y2="480" stroke-width="4"/>
      <line x1="300" y1="400" x2="310" y2="480" stroke-width="4"/>
      <line x1="250" y1="400" x2="250" y2="480" stroke-width="4"/>
    </g>

    <g fill="#FFD600">
        <path d="M150 480 L200 480 L210 550 L130 550 Z" /> <path d="M130 550 L210 550 L220 580 L120 580 Z" /> <path d="M300 480 L350 480 L370 550 L290 550 Z" /> <path d="M290 550 L370 550 L380 580 L280 580 Z" /> <circle cx="175" cy="480" r="20" /> <circle cx="325" cy="480" r="20" /> </g>

    <rect x="140" y="180" width="220" height="230" rx="60" ry="60" fill="#FFD600" />
    <line x1="210" y1="180" x2="210" y2="400" stroke="#E6C200" stroke-width="6" stroke-linecap="butt"/>
    <line x1="290" y1="180" x2="290" y2="400" stroke="#E6C200" stroke-width="6" stroke-linecap="butt"/>

    <g fill="#0D47A1">
        <path d="M140 340 L90 360 L60 400 L70 430 L120 410 L140 370 Z" />
        <circle cx="90" cy="390" r="15" /> <path d="M360 340 L410 360 L440 400 L430 430 L380 410 L360 370 Z" />
        <circle cx="410" cy="390" r="15" /> <circle cx="80" cy="450" r="30" />
        <circle cx="420" cy="450" r="30" />
    </g>

    <g transform="translate(50, 460) rotate(-45)">
        <rect x="-10" y="-60" width="20" height="100" fill="#CFD8DC" /> <rect x="-25" y="40" width="50" height="15" fill="#FFD600" rx="5" /> <rect x="-10" y="55" width="20" height="30" fill="#FFD600" /> </g>

    <g fill="#FFD600" transform="translate(0,-20)">
        <polygon points="150,180 200,100 250,60 300,100 350,180" />
        <circle cx="175" cy="160" r="12" fill="#2196F3"/> <circle cx="250" cy="120" r="12" fill="#F44336"/> <circle cx="325" cy="160" r="12" fill="#4CAF50"/> <circle cx="250" cy="180" r="12" fill="#F44336"/> </g>

    <g fill="#37474F" stroke="none">
        <circle cx="210" cy="260" r="12" /> <circle cx="290" cy="260" r="12" /> <path d="M170 240 L220 260" stroke="#37474F" stroke-width="10" fill="none"/>
        <path d="M330 240 L280 260" stroke="#37474F" stroke-width="10" fill="none"/>
        <path d="M230 310 Q 250 300, 270 310" stroke="#37474F" stroke-width="8" fill="none" stroke-linecap="round"/>
    </g>

  </g>
</svg>
